<svg xmlns="http://www.w3.org/2000/svg" viewBox="0 0 32 32" width="32" height="32">
  <path d="M16 5.5C14 5.5 11.3 6.1 9.6 7.6C7.6 9.3 6.9 11.3 7.1 13.4C6.1 14 5.4 14.9 5.4 16.2C5.4 17.7 6.3 18.9 7.5 19.5C7.1 20.8 7.3 22.4 8.2 23.5C9.3 24.9 11.2 25.3 12.8 24.8C13.5 26.1 14.7 26.9 15.7 26.9H16V5.5Z" fill="#f5a623" stroke="#111" stroke-width="1.15" stroke-linejoin="round"/>
  <path d="M16 5.5C18 5.5 20.7 6.1 22.4 7.6C24.4 9.3 25.1 11.3 24.9 13.4C25.9 14 26.6 14.9 26.6 16.2C26.6 17.7 25.7 18.9 24.5 19.5C24.9 20.8 24.7 22.4 23.8 23.5C22.7 24.9 20.8 25.3 19.2 24.8C18.5 26.1 17.3 26.9 16.3 26.9H16V5.5Z" fill="#f5a623" stroke="#111" stroke-width="1.15" stroke-linejoin="round"/>
  <line x1="16" y1="5.6" x2="16" y2="26.9" stroke="#111" stroke-width="0.9"/>
  <path d="M11.5 11.7C12.5 12.9 13.4 13.5 14 13.9" fill="none" stroke="#111" stroke-width="1.1" stroke-linecap="round"/>
  <path d="M14 13.9C13.5 14.8 12.8 15.4 11.7 16.5" fill="none" stroke="#111" stroke-width="1.1" stroke-linecap="round"/>
  <path d="M20.5 11.7C19.5 12.9 18.6 13.5 18 13.9" fill="none" stroke="#111" stroke-width="1.1" stroke-linecap="round"/>
  <path d="M18 13.9C18.5 14.8 19.2 15.4 20.3 16.5" fill="none" stroke="#111" stroke-width="1.1" stroke-linecap="round"/>
</svg>
